<?xml version="1.0" standalone="no"?>
<!DOCTYPE svg PUBLIC "-//W3C//DTD SVG 20010904//EN"
 "http://www.w3.org/TR/2001/REC-SVG-20010904/DTD/svg10.dtd">
<svg version="1.0" xmlns="http://www.w3.org/2000/svg"
 width="864.000000pt" height="864.000000pt" viewBox="0 0 864.000000 864.000000"
 preserveAspectRatio="xMidYMid meet">
<metadata>
Created by potrace 1.11, written by Peter Selinger 2001-2013
</metadata>
<g transform="translate(0.000000,864.000000) scale(0.100000,-0.100000)"
fill="#000000" stroke="none">
<path d="M4040 8637 c-3 -3 -32 -8 -65 -12 -129 -13 -152 -15 -200 -21 -76 -8
-333 -53 -395 -69 -30 -8 -66 -16 -80 -19 -117 -23 -389 -110 -575 -183 -151
-59 -485 -219 -485 -232 0 -4 -6 -8 -13 -8 -14 0 -201 -109 -302 -177 -91 -60
-278 -200 -353 -264 -37 -31 -75 -63 -85 -72 -122 -101 -334 -319 -477 -489
-25 -29 -50 -59 -56 -65 -29 -31 -149 -194 -222 -303 -316 -472 -533 -990
-647 -1546 -7 -35 -44 -262 -49 -302 -11 -86 -15 -123 -23 -190 -10 -91 -10
-635 0 -745 7 -76 31 -253 42 -320 3 -14 8 -45 11 -70 3 -25 8 -48 10 -52 2
-3 11 -39 19 -80 20 -103 21 -106 50 -215 118 -449 319 -892 576 -1275 182
-273 300 -414 579 -697 126 -128 323 -294 532 -448 52 -38 245 -160 310 -196
26 -15 83 -46 125 -70 126 -71 465 -227 494 -227 5 0 17 -4 27 -10 16 -9 209
-80 215 -79 1 1 40 -10 87 -25 148 -44 409 -106 470 -111 14 -1 34 -4 45 -8
11 -3 44 -9 74 -12 30 -3 57 -7 60 -9 3 -2 42 -7 86 -11 44 -4 100 -10 125
-12 25 -3 171 -7 324 -10 258 -4 455 6 617 33 14 2 41 6 60 8 34 5 92 14 243
41 22 4 50 11 63 16 13 5 23 7 23 4 0 -2 15 1 33 6 17 6 40 12 49 14 158 35
610 187 643 216 5 5 15 9 22 9 21 0 317 147 447 222 67 39 175 107 241 151
195 130 309 219 499 387 76 66 272 265 316 320 24 30 51 62 60 71 8 9 29 34
47 55 17 22 39 49 50 61 10 12 29 36 43 53 14 18 30 37 35 44 160 177 432 657
568 1001 49 125 117 312 115 318 0 1 10 36 22 77 44 147 96 372 116 504 3 21
8 48 10 60 2 11 6 46 9 77 3 31 8 71 10 90 16 119 20 217 20 479 0 162 -3 324
-7 360 -59 511 -139 848 -297 1245 -104 261 -283 596 -443 831 -91 133 -410
518 -517 622 -149 146 -361 332 -378 332 -7 0 -13 4 -13 8 0 17 -277 210 -455
317 -87 53 -366 196 -455 234 -201 86 -322 131 -508 187 -100 31 -315 85 -382
97 -14 3 -63 12 -110 20 -47 9 -107 19 -135 22 -27 3 -59 7 -70 9 -11 2 -56 7
-100 11 -44 4 -91 10 -105 12 -35 7 -614 16 -620 10z"/>
</g>
</svg>
